<?xml version="1.0" encoding="UTF-8"?>
<svg version="1.1" xmlns="http://www.w3.org/2000/svg" width="438" height="511">
<path d="M0 0 C4.455 0.99 4.455 0.99 9 2 C9 2.66 9 3.32 9 4 C10.2065625 4.3403125 10.2065625 4.3403125 11.4375 4.6875 C18.46479131 7.27650206 24.72502562 11.42514972 31.109375 15.29296875 C33.82892608 16.89897392 36.5780277 18.4415019 39.34130859 19.97070312 C47.57265615 24.52985426 55.58767339 29.38695233 63.55395508 34.39477539 C68.94772402 37.77581222 74.40887386 40.95769703 80 44 C86.09568797 47.32853161 92.04173872 50.82969361 97.9375 54.5 C104.14310938 58.33310288 110.3500648 61.97578324 117 65 C117 65.66 117 66.32 117 67 C117.72832031 67.28359375 118.45664062 67.5671875 119.20703125 67.859375 C126.4208357 70.8054322 133.15168942 74.58060308 139.7734375 78.66796875 C141.80986878 79.88625483 143.86311832 80.97058896 146 82 C146 82.66 146 83.32 146 84 C146.69480469 84.08636719 147.38960938 84.17273438 148.10546875 84.26171875 C151.69425484 85.17707715 154.20362813 86.80569528 157.3125 88.8125 C161.50460762 91.47859796 165.68866748 93.93884176 170.17578125 96.07421875 C172.89152465 97.45244399 175.40679082 99.11982824 177.96875 100.76171875 C181.20635701 102.73541379 184.58589129 104.35391187 188 106 C188 106.66 188 107.32 188 108 C188.804375 108.226875 189.60875 108.45375 190.4375 108.6875 C197.25457544 111.19905411 209.64869235 116.29738471 213 123 C213.10067812 124.43768822 213.1399998 125.8799011 213.14818764 127.32108688 C213.15949964 128.6904842 213.15949964 128.6904842 213.17104018 130.08754611 C213.17426641 131.09705616 213.17749265 132.10656621 213.18081665 133.14666748 C213.19162343 134.74771674 213.19162343 134.74771674 213.20264852 136.38111043 C213.22549043 139.98160196 213.24097884 143.58208653 213.25634766 147.18261719 C213.27078944 149.7544268 213.28554698 152.32623465 213.30059814 154.89804077 C213.43286835 178.3767686 213.49696176 201.85603639 213.54844093 225.33506393 C213.55545002 228.47663144 213.56257698 231.61819866 213.56982422 234.75976562 C213.57161951 235.54060183 213.5734148 236.32143803 213.5752645 237.12593594 C213.60533573 249.7769584 213.67010622 262.42756582 213.74851067 275.07837114 C213.8283151 288.06229736 213.87411852 301.04600851 213.88746679 314.03017545 C213.89587923 321.32224996 213.91967067 328.61358863 213.98213577 335.9054184 C214.0408589 342.76420238 214.05409493 349.62175468 214.03626251 356.48076248 C214.03714336 359.00033863 214.05349107 361.51996313 214.08630753 364.03932571 C214.12875724 367.47616863 214.11589564 370.90850012 214.08901978 374.34539795 C214.11455323 375.34598511 214.14008668 376.34657228 214.16639388 377.37748027 C214.0337517 383.98494262 214.0337517 383.98494262 211.05980563 386.90510798 C208.76519886 388.45592187 206.46864896 389.74919206 204 391 C202.70670851 391.7890095 201.41486933 392.58040828 200.125 393.375 C197 395 197 395 194 395 C194 395.66 194 396.32 194 397 C192.25318707 397.98484108 190.5024149 398.96266187 188.75 399.9375 C187.28820312 400.75541016 187.28820312 400.75541016 185.796875 401.58984375 C183.46389591 402.76610835 181.54649238 403.52101691 179 404 C179 404.66 179 405.32 179 406 C177.25318707 406.98484108 175.5024149 407.96266187 173.75 408.9375 C172.28820312 409.75541016 172.28820312 409.75541016 170.796875 410.58984375 C168.46389591 411.76610835 166.54649238 412.52101691 164 413 C164 413.66 164 414.32 164 415 C163.38253906 415.30292969 162.76507813 415.60585938 162.12890625 415.91796875 C156.92808807 418.4906718 151.83141443 421.16926841 146.8125 424.08203125 C145 425 145 425 143 425 C143 425.66 143 426.32 143 427 C141.98292969 427.54527344 141.98292969 427.54527344 140.9453125 428.1015625 C136.23818063 430.64419606 131.57241547 433.2212652 127 436 C112.1712828 444.97776968 112.1712828 444.97776968 107 446 C107 446.66 107 447.32 107 448 C105.57107422 448.70576172 105.57107422 448.70576172 104.11328125 449.42578125 C102.84630039 450.05457916 101.57937631 450.68349148 100.3125 451.3125 C99.68666016 451.62123047 99.06082031 451.92996094 98.41601562 452.24804688 C95.59714758 453.65010166 92.85541013 455.0883494 90.16796875 456.73046875 C88 458 88 458 86 458 C86 458.66 86 459.32 86 460 C84.98292969 460.54527344 84.98292969 460.54527344 83.9453125 461.1015625 C79.19768982 463.66606782 74.49157865 466.26787299 69.875 469.0625 C56.45204313 477.18019296 56.45204313 477.18019296 50 479 C50 479.66 50 480.32 50 481 C48.2335343 482.0076952 46.46166177 483.00591714 44.6875 484 C43.20830078 484.8353125 43.20830078 484.8353125 41.69921875 485.6875 C39 487 39 487 36 487 C36 487.66 36 488.32 36 489 C35.13761719 489.41894531 34.27523438 489.83789062 33.38671875 490.26953125 C29.02842416 492.49643379 24.88816439 495.03398314 20.70703125 497.57421875 C18 499 18 499 15 499 C15 499.66 15 500.32 15 501 C-3.13333333 511 -3.13333333 511 -7 511 C-7 450.28 -7 389.56 -7 327 C30.29 327 67.58 327 106 327 C106.33 263.97 106.66 200.94 107 136 C101.22501176 140.18554787 101.22501176 140.18554787 98 146 C97.34 146 96.68 146 96 146 C95.67 146.99 95.34 147.98 95 149 C94.34 149 93.68 149 93 149 C92.60941406 149.86818359 92.60941406 149.86818359 92.2109375 150.75390625 C90.91807675 153.15195442 89.45274925 154.92218697 87.625 156.9375 C85.54671573 159.24910517 83.58811942 161.53433156 81.6875 164 C81.130625 164.66 80.57375 165.32 80 166 C79.34 166 78.68 166 78 166 C77.9071875 166.86625 77.9071875 166.86625 77.8125 167.75 C77 170 77 170 74.734375 171.80078125 C71.85057357 174.12018154 69.74182069 176.54808223 67.4375 179.4375 C66.69371094 180.36433594 65.94992187 181.29117188 65.18359375 182.24609375 C63.74032864 184.06631182 62.30525616 185.89305931 60.87890625 187.7265625 C59 190 59 190 56.5 191.9375 C53.6411434 194.29605669 52.02762305 196.92360641 50 200 C49.34 200 48.68 200 48 200 C47.62681641 200.83337891 47.62681641 200.83337891 47.24609375 201.68359375 C45.77904015 204.41074982 44.01113998 206.65663723 42.0625 209.0625 C41.37285156 209.91972656 40.68320312 210.77695313 39.97265625 211.66015625 C36.76049374 215.47022624 36.76049374 215.47022624 35 217 C34.34 217 33.68 217 33 217 C32.896875 217.598125 32.79375 218.19625 32.6875 218.8125 C31.90175967 221.31258286 31.03081147 222.37535082 29 224 C28.34 224 27.68 224 27 224 C26.7525 224.55171875 26.505 225.1034375 26.25 225.671875 C24.75765526 228.45136707 22.96327477 230.7814707 21 233.25 C20.29875 234.14203125 19.5975 235.0340625 18.875 235.953125 C17.946875 236.96632812 17.946875 236.96632812 17 238 C16.34 238 15.68 238 15 238 C14.6596875 238.804375 14.6596875 238.804375 14.3125 239.625 C12.54429911 242.82460161 10.46329797 245.29037223 8 248 C7.34 248 6.68 248 6 248 C5.75121094 248.55558594 5.50242188 249.11117187 5.24609375 249.68359375 C3.77904015 252.41074982 2.01113998 254.65663723 0.0625 257.0625 C-0.62714844 257.91972656 -1.31679687 258.77695312 -2.02734375 259.66015625 C-5.23950626 263.47022624 -5.23950626 263.47022624 -7 265 C-7.66 265 -8.32 265 -9 265 C-9.33 266.32 -9.66 267.64 -10 269 C-10.66 269 -11.32 269 -12 269 C-12.33 269.99 -12.66 270.98 -13 272 C-13.66 272 -14.32 272 -15 272 C-15.3403125 272.7734375 -15.3403125 272.7734375 -15.6875 273.5625 C-18.69650156 279.15064575 -22.03132969 283.05054411 -27 287 C-28.3703055 288.97485205 -29.70672372 290.97386717 -31 293 C-32.625 294.875 -32.625 294.875 -34 296 C-34.66 296 -35.32 296 -36 296 C-36.2475 296.55171875 -36.495 297.1034375 -36.75 297.671875 C-38.24234474 300.45136707 -40.03672523 302.7814707 -42 305.25 C-42.70125 306.14203125 -43.4025 307.0340625 -44.125 307.953125 C-45.053125 308.96632813 -45.053125 308.96632813 -46 310 C-46.66 310 -47.32 310 -48 310 C-48.33 310.99 -48.66 311.98 -49 313 C-49.66 313 -50.32 313 -51 313 C-51.33 314.32 -51.66 315.64 -52 317 C-54.1875 316.9375 -54.1875 316.9375 -57 316 C-59.38627358 313.43314355 -62 310.61081552 -62 307 C-62.66 307 -63.32 307 -64 307 C-65.47265625 305.35546875 -65.47265625 305.35546875 -67.0625 303.1875 C-67.58972656 302.47980469 -68.11695313 301.77210938 -68.66015625 301.04296875 C-70 299 -70 299 -71 296 C-71.99692783 294.99693723 -72.99774012 293.997735 -74 293 C-75.60032687 290.83029949 -77.15770138 288.65534201 -78.6875 286.4375 C-79.10322266 285.84775391 -79.51894531 285.25800781 -79.94726562 284.65039062 C-83 280.24422722 -83 280.24422722 -83 278 C-83.66 278 -84.32 278 -85 278 C-85.33 277.01 -85.66 276.02 -86 275 C-86.66 274.67 -87.32 274.34 -88 274 C-88.89923044 272.40905384 -89.79495315 270.81605171 -90.67578125 269.21484375 C-93.4433006 264.58598396 -96.80501387 260.33901641 -100 256 C-101.34100916 254.1513772 -102.67486147 252.29753217 -104 250.4375 C-104.5775 249.63183594 -105.155 248.82617188 -105.75 247.99609375 C-107 246 -107 246 -107 244 C-107.66 244 -108.32 244 -109 244 C-110.17333984 242.59472656 -110.17333984 242.59472656 -111.4609375 240.640625 C-111.93273437 239.93679687 -112.40453125 239.23296875 -112.890625 238.5078125 C-113.38046875 237.76273438 -113.8703125 237.01765625 -114.375 236.25 C-118.00002975 230.6712416 -118.00002975 230.6712416 -122.3515625 225.671875 C-124 224 -124 224 -124 221 C-124.66 221 -125.32 221 -126 221 C-126 293.6 -126 366.2 -126 441 C-130.1909547 440.16180906 -132.30614053 439.50122961 -135.875 437.5 C-136.82117188 436.97019531 -137.76734375 436.44039063 -138.7421875 435.89453125 C-143.18151074 433.31291042 -147.58353585 430.67048074 -151.96044922 427.984375 C-154.62360014 426.36106761 -157.02957348 424.99014217 -160 424 C-160 423.34 -160 422.68 -160 422 C-160.928125 421.814375 -161.85625 421.62875 -162.8125 421.4375 C-167.6065862 420.10417541 -171.4536746 417.30835547 -175.546875 414.55859375 C-177.98531389 412.8705423 -177.98531389 412.8705423 -181 412 C-181 411.34 -181 410.68 -181 410 C-181.88377319 409.80772827 -181.88377319 409.80772827 -182.78540039 409.61157227 C-186.28979702 408.64381639 -189.30391705 406.73598828 -192.4375 404.9375 C-193.49070435 404.34001953 -193.49070435 404.34001953 -194.56518555 403.73046875 C-200.27432783 400.46994425 -205.86952557 397.04486714 -211.42578125 393.53125 C-213.97938073 391.8884191 -213.97938073 391.8884191 -217 391 C-217 390.34 -217 389.68 -217 389 C-217.763125 388.87625 -218.52625 388.7525 -219.3125 388.625 C-222 388 -222 388 -225 386 C-225.38870484 384.06277126 -225.38870484 384.06277126 -225.40824986 381.64044094 C-225.42285678 380.71890931 -225.43746371 379.79737767 -225.45251328 378.84792084 C-225.45332443 377.8287843 -225.45413558 376.80964776 -225.45497131 375.7596283 C-225.47363311 374.1433781 -225.47363311 374.1433781 -225.49267191 372.49447638 C-225.53059765 368.85949303 -225.54670901 365.22474089 -225.56274414 361.58959961 C-225.58480229 358.99309345 -225.60798639 356.39659665 -225.63221741 353.80010986 C-225.70107047 345.98927226 -225.74036035 338.17839252 -225.77506533 330.36733922 C-225.78846544 327.42596266 -225.80351027 324.48459543 -225.81853561 321.54322679 C-225.88442755 308.57783838 -225.94055373 295.61243973 -225.97176456 282.6469183 C-225.97953391 279.47237562 -225.98737755 276.29783316 -225.99536133 273.12329102 C-225.99733717 272.3342699 -225.99931301 271.54524878 -226.00134873 270.73231793 C-226.03494043 257.95689672 -226.12669346 245.18258404 -226.24254567 232.40767103 C-226.36051845 219.29149852 -226.42561025 206.17589177 -226.43924993 193.0591889 C-226.44823841 185.69450656 -226.48042275 178.33152081 -226.57191658 170.96735954 C-226.65786737 164.03663204 -226.67225278 157.1089312 -226.63838768 150.17776489 C-226.63744957 147.63520602 -226.66045257 145.09250765 -226.7092514 142.55041695 C-227.04885463 123.83094298 -227.04885463 123.83094298 -223.63433146 119.11302876 C-219.90041635 115.62475958 -215.7154116 113.83240441 -211 112 C-209.19457047 111.02506735 -207.39946026 110.0302234 -205.625 109 C-204.74328125 108.53078125 -203.8615625 108.0615625 -202.953125 107.578125 C-188.40561767 99.80406024 -174.13389157 91.4537492 -160.125 82.75 C-144.54844151 73.11481388 -144.54844151 73.11481388 -139 72 C-139 71.34 -139 70.68 -139 70 C-137.64068359 69.34644531 -137.64068359 69.34644531 -136.25390625 68.6796875 C-129.14039409 65.2173153 -122.487946 61.55536634 -116 57 C-111.3 54 -111.3 54 -109 54 C-109 53.34 -109 52.68 -109 52 C-107.35 51.67 -105.7 51.34 -104 51 C-103.01 52.98 -103.01 52.98 -102 55 C-101.34 55 -100.68 55 -100 55 C-96 60.41176471 -96 60.41176471 -96 63 C-95.34 63 -94.68 63 -94 63 C-93.67 63.99 -93.34 64.98 -93 66 C-92.54625 66.45375 -92.0925 66.9075 -91.625 67.375 C-89.61634983 69.38365017 -88.34333353 71.50523773 -87 74 C-87 74.66 -87 75.32 -87 76 C-86.34 76 -85.68 76 -85 76 C-83.37890625 78.265625 -83.37890625 78.265625 -81.5625 81.25 C-79.06250136 85.33995353 -79.06250136 85.33995353 -76.27734375 89.234375 C-75 91 -75 91 -75 93 C-74.34 93 -73.68 93 -73 93 C-71.2734375 95.3359375 -71.2734375 95.3359375 -69.375 98.375 C-68.74335938 99.37273437 -68.11171875 100.37046875 -67.4609375 101.3984375 C-66 104 -66 104 -66 106 C-65.34 106 -64.68 106 -64 106 C-60 112.75 -60 112.75 -60 115 C-59.34 115 -58.68 115 -58 115 C-57.67 116.32 -57.34 117.64 -57 119 C-56.34 119 -55.68 119 -55 119 C-54.67 120.65 -54.34 122.3 -54 124 C-53.34 124 -52.68 124 -52 124 C-50.2734375 126.1171875 -50.2734375 126.1171875 -48.375 128.875 C-47.74335938 129.77992188 -47.11171875 130.68484375 -46.4609375 131.6171875 C-45 134 -45 134 -45 136 C-44.34 136 -43.68 136 -43 136 C-40.98217268 138.90567134 -39.64505596 141.51669784 -39 145 C-38.34 145 -37.68 145 -37 145 C-35.5765578 146.9299431 -34.23440799 148.9203491 -32.9375 150.9375 C-30.70667733 154.65139707 -30.70667733 154.65139707 -28 158 C-27.92686433 160.53049402 -27.90752473 163.03304837 -27.9375 165.5625 C-27.94201172 166.27341797 -27.94652344 166.98433594 -27.95117188 167.71679688 C-27.96299136 169.47790013 -27.98092737 171.23896036 -28 173 C-28.66 173 -29.32 173 -30 173 C-29.938125 174.03125 -29.87625 175.0625 -29.8125 176.125 C-29.79349156 181.4663706 -31.08968325 186.47708274 -32.2734375 191.66015625 C-32.84206667 194.27401616 -33.28312899 196.78347543 -33.5625 199.4375 C-34.01569168 203.12777509 -34.9800718 206.43025131 -36 210 C-36.21122227 211.45508677 -36.39870165 212.91381471 -36.5625 214.375 C-37 218 -37 218 -38 219 C-38.35242628 221.34852138 -38.65638419 223.70437981 -38.9375 226.0625 C-39.9647713 234.35272542 -39.9647713 234.35272542 -41.0625 238.375 C-42.20571122 242.79541673 -43 247.41146779 -43 252 C-39.57808821 243.43119629 -36.59490445 234.85746713 -34 226 C-33.34 226 -32.68 226 -32 226 C-31.85691406 224.31197266 -31.85691406 224.31197266 -31.7109375 222.58984375 C-31.08671248 217.61247058 -29.44218986 213.21435586 -27.625 208.5625 C-27.01161875 206.96017144 -26.39963361 205.35730773 -25.7890625 203.75390625 C-25.48718018 202.96226074 -25.18529785 202.17061523 -24.87426758 201.35498047 C-23.48135854 197.60295574 -22.24476685 193.80314113 -21 190 C-20.44008061 188.32769638 -19.87883844 186.65583518 -19.31640625 184.984375 C-15.77414721 174.42249272 -12.31809289 163.85335208 -9.1640625 153.16796875 C-7.93626477 149.01655364 -6.60838061 145.02095152 -5 141 C-4.63128912 139.34080104 -4.28718326 137.6752357 -4 136 C-3.34 136 -2.68 136 -2 136 C-1.938125 134.96875 -1.87625 133.9375 -1.8125 132.875 C-1.07019394 126.97779074 1.18935629 121.61819072 3.24560547 116.07568359 C4.64728054 112.21903589 5.94828779 108.32879284 7.25 104.4375 C7.5080542 103.6758252 7.7661084 102.91415039 8.03198242 102.12939453 C9.26449279 98.44047664 10.35989116 94.84827339 11 91 C11.66 91 12.32 91 13 91 C13.1546875 89.0509375 13.1546875 89.0509375 13.3125 87.0625 C13.848308 82.09839647 15.24930225 77.65751666 17 73 C9.47327682 75.91537881 2.39003873 79.31353288 -4.67822266 83.1796875 C-9.03488543 85.54262324 -13.29446775 87.46349967 -18 89 C-19 88 -19 88 -19.3125 84.4375 C-19.26440208 78.40602106 -17.56017325 72.75930802 -16.0234375 66.9765625 C-14.71898598 62.03675429 -13.81186759 57.04212501 -13 52 C-12.34 52 -11.68 52 -11 52 C-10.94392578 51.16082031 -10.94392578 51.16082031 -10.88671875 50.3046875 C-10.09110896 40.6013681 -8.0838043 31.22560701 -5 22 C-4.66073053 19.66752239 -4.32759934 17.33414529 -4 15 C-3.36149212 12.65880445 -2.69356423 10.32548007 -2 8 C-1.31117456 5.33841598 -0.65579016 2.6700028 0 0 Z " fill="#010101" transform="translate(225,0)"/>
<path d="M0 0 C1.32 0.33 2.64 0.66 4 1 C3.01 1.495 3.01 1.495 2 2 C2 74.6 2 147.2 2 222 C-2.31215152 221.1375697 -4.60460731 220.33200053 -8.3125 218.25 C-9.26382813 217.71632813 -10.21515625 217.18265625 -11.1953125 216.6328125 C-14.85348869 214.50312218 -18.43720805 212.28556465 -22 210 C-21.34 209.67 -20.68 209.34 -20 209 C-17.64453125 210.07421875 -17.64453125 210.07421875 -14.8125 211.6875 C-13.33910156 212.51894531 -13.33910156 212.51894531 -11.8359375 213.3671875 C-10.90007812 213.90601563 -9.96421875 214.44484375 -9 215 C-8.27039063 215.41507813 -7.54078125 215.83015625 -6.7890625 216.2578125 C-5.19066282 217.16829333 -3.59506342 218.08368697 -2 219 C-1.34 219.33 -0.68 219.66 0 220 C0 147.4 0 74.8 0 0 Z " fill="#363636" transform="translate(97,219)"/>
<path d="M0 0 C-0.57648075 7.35012956 -2.71046164 14.01424576 -5 21 C-5.66 21 -6.32 21 -7 21 C-7.103125 22.134375 -7.20625 23.26875 -7.3125 24.4375 C-7.89110501 29.19397351 -9.35073697 33.51898346 -11 38 C-12.63129887 33.93714243 -11.29968777 30.79897816 -10.0625 26.75 C-9.68222656 25.48671875 -9.30195313 24.2234375 -8.91015625 22.921875 C-8.60980469 21.95765625 -8.30945313 20.9934375 -8 20 C-7.34 20 -6.68 20 -6 20 C-5.896875 18.700625 -5.79375 17.40125 -5.6875 16.0625 C-5.151692 11.09839647 -3.75069775 6.65751666 -2 2 C-9.52672318 4.91537881 -16.60996127 8.31353288 -23.67822266 12.1796875 C-28.03488543 14.54262324 -32.29446775 16.46349967 -37 18 C-38.58894072 16.41105928 -38.16998411 14.75198576 -38.1875 12.5625 C-38.20167969 11.75941406 -38.21585938 10.95632812 -38.23046875 10.12890625 C-38 8 -38 8 -36 6 C-36.33 9.3 -36.66 12.6 -37 16 C-36.16855469 15.566875 -35.33710938 15.13375 -34.48046875 14.6875 C-32.85044922 13.8521875 -32.85044922 13.8521875 -31.1875 13 C-30.10855469 12.443125 -29.02960938 11.88625 -27.91796875 11.3125 C-25 10 -25 10 -22 10 C-22 9.34 -22 8.68 -22 8 C-20.02 7.67 -18.04 7.34 -16 7 C-16 6.34 -16 5.68 -16 5 C-14.08717875 4.15787744 -12.16957527 3.32661136 -10.25 2.5 C-9.18265625 2.0359375 -8.1153125 1.571875 -7.015625 1.09375 C-4 0 -4 0 0 0 Z " fill="#2D2D2D" transform="translate(244,71)"/>
<path d="M0 0 C0.6875 1.5625 0.6875 1.5625 1 4 C0.28473443 5.64931826 -0.433496 7.29743603 -1.16918945 8.93774414 C-2.97302753 13.41526991 -3.90651327 18.19734387 -5.01757812 22.88476562 C-6.22124258 27.71890021 -7.79818224 31.87867727 -10.13256836 36.27807617 C-11.15291954 38.30355798 -11.68386579 40.20486383 -12.0625 42.4375 C-12.96682111 47.11389927 -14.40998436 51.5161559 -16 56 C-16.66 56 -17.32 56 -18 56 C-18.495 58.475 -18.495 58.475 -19 61 C-20 59 -20 59 -19.1015625 55.78125 C-18.61715387 54.35150749 -18.12420617 52.92464331 -17.625 51.5 C-17.35896973 50.72116455 -17.09293945 49.9423291 -16.81884766 49.13989258 C-15.88808389 46.42345878 -14.94496059 43.71152708 -14 41 C-12.85006116 37.69164421 -11.700593 34.38312748 -10.55224609 31.07421875 C-9.7874113 28.87393085 -9.0196708 26.67465006 -8.24853516 24.4765625 C-5.95037129 17.89114487 -3.82032041 11.27483414 -1.81884766 4.59301758 C-1 2 -1 2 0 0 Z " fill="#454545" transform="translate(216,154)"/>
<path d="M0 0 C0.33 0 0.66 0 1 0 C0.27111028 12.58293839 0.27111028 12.58293839 -1 17.25 C-1.96427302 20.86602383 -2.42558873 24.2437084 -2.77734375 27.953125 C-3 30 -3 30 -3.625 32.9375 C-4.22291667 35.05416667 -4.22291667 35.05416667 -3 37 C-3.33 37.66 -3.66 38.32 -4 39 C-4.66 39 -5.32 39 -6 39 C-6.6639251 29.42841314 -4.85308365 21.12097185 -2.48730469 11.94873047 C-1.49971641 7.99936691 -0.74704723 4.00063451 0 0 Z " fill="#3C3C3C" transform="translate(185,221)"/>
<path d="M0 0 C1.32 0 2.64 0 4 0 C3.42351925 7.35012956 1.28953836 14.01424576 -1 21 C-1.66 21 -2.32 21 -3 21 C-3.103125 22.134375 -3.20625 23.26875 -3.3125 24.4375 C-3.89110501 29.19397351 -5.35073697 33.51898346 -7 38 C-8.63129887 33.93714243 -7.29968777 30.79897816 -6.0625 26.75 C-5.49208984 24.85507813 -5.49208984 24.85507813 -4.91015625 22.921875 C-4.60980469 21.95765625 -4.30945313 20.9934375 -4 20 C-3.34 20 -2.68 20 -2 20 C-1.896875 18.700625 -1.79375 17.40125 -1.6875 16.0625 C-1.151692 11.09839647 0.24930225 6.65751666 2 2 C1.01 1.67 0.02 1.34 -1 1 C-0.67 0.67 -0.34 0.34 0 0 Z " fill="#474747" transform="translate(240,71)"/>
<path d="M0 0 C0.66 0.33 1.32 0.66 2 1 C1.54591873 3.52166467 1.0868593 6.04225816 0.625 8.5625 C0.49867188 9.26697266 0.37234375 9.97144531 0.2421875 10.69726562 C-0.59221551 15.22390195 -1.73162622 19.57135036 -3 24 C-3.20824455 25.45297904 -3.38432717 26.91173868 -3.5 28.375 C-3.665 29.57125 -3.83 30.7675 -4 32 C-4.99 32.495 -4.99 32.495 -6 33 C-5.34 27.06 -4.68 21.12 -4 15 C-3.34 15 -2.68 15 -2 15 C-2.04125 13.824375 -2.0825 12.64875 -2.125 11.4375 C-2.13983635 7.27590326 -1.31170778 3.93512333 0 0 Z " fill="#404040" transform="translate(192,186)"/>
<path d="M0 0 C1.485 0.99 1.485 0.99 3 2 C3.22137393 4.62697064 3.28162025 7.00893964 3.1875 9.625 C3.17396484 10.33140625 3.16042969 11.0378125 3.14648438 11.765625 C3.1111104 13.51074128 3.05730221 15.25546608 3 17 C2.34 17 1.68 17 1 17 C1.04125 18.2375 1.0825 19.475 1.125 20.75 C1.2361216 24.08364791 0.65876079 26.1004339 -1 29 C-0.8590651 26.56212615 -0.71245458 24.12482147 -0.5625 21.6875 C-0.52318359 20.99720703 -0.48386719 20.30691406 -0.44335938 19.59570312 C-0.25072585 16.52838465 0.02322717 13.93031848 1 11 C1.15754704 9.04322445 1.15754704 9.04322445 1.125 7 C1.12757813 6.319375 1.13015625 5.63875 1.1328125 4.9375 C1.06631126 2.78125219 1.06631126 2.78125219 0 0 Z " fill="#393939" transform="translate(194,156)"/>
<path d="M0 0 C7.01395162 1.44404886 13.18815796 5.97641705 19 10 C18.01 10.495 18.01 10.495 17 11 C14.6171875 10.00390625 14.6171875 10.00390625 11.875 8.5625 C10.96492188 8.08941406 10.05484375 7.61632812 9.1171875 7.12890625 C8.41851562 6.75636719 7.71984375 6.38382812 7 6 C7 5.34 7 4.68 7 4 C6.401875 3.896875 5.80375 3.79375 5.1875 3.6875 C2.71756736 2.91123545 1.67748765 1.92911079 0 0 Z " fill="#2C2C2C" transform="translate(415,109)"/>
<path d="M0 0 C1.2380014 3.57644848 0.74926071 6.33694766 0 10 C0.54269531 9.69964844 1.08539063 9.39929688 1.64453125 9.08984375 C2.35996094 8.70957031 3.07539063 8.32929687 3.8125 7.9375 C4.52019531 7.55464844 5.22789062 7.17179687 5.95703125 6.77734375 C8 6 8 6 11 7 C9.38007835 7.86375896 7.75388139 8.71575854 6.125 9.5625 C4.76761719 10.27599609 4.76761719 10.27599609 3.3828125 11.00390625 C2.59648437 11.33261719 1.81015625 11.66132812 1 12 C0.34 11.67 -0.32 11.34 -1 11 C-1.0270043 9.54176788 -1.04639787 8.08339325 -1.0625 6.625 C-1.07410156 5.81289062 -1.08570313 5.00078125 -1.09765625 4.1640625 C-1 2 -1 2 0 0 Z " fill="#414141" transform="translate(207,77)"/>
<path d="M0 0 C3.79049707 1.42749981 7.27122456 3.16236542 10.8125 5.125 C12.27623047 5.93324219 12.27623047 5.93324219 13.76953125 6.7578125 C14.50558594 7.16773438 15.24164063 7.57765625 16 8 C13 9 13 9 10.37109375 7.8203125 C8.91896484 6.98113281 8.91896484 6.98113281 7.4375 6.125 C5.98150391 5.29355469 5.98150391 5.29355469 4.49609375 4.4453125 C3.67238281 3.96835937 2.84867187 3.49140625 2 3 C1.34 2.67 0.68 2.34 0 2 C0 1.34 0 0.68 0 0 Z " fill="#2A2A2A" transform="translate(305,45)"/>
<path d="M0 0 C5.59032906 2.25992026 10.77195171 5.00068885 16 8 C13 9 13 9 9.86328125 7.56640625 C8.6739872 6.90864027 7.49053629 6.24022185 6.3125 5.5625 C5.70599609 5.22412109 5.09949219 4.88574219 4.47460938 4.53710938 C2.9779975 3.70042085 1.48830811 2.85137169 0 2 C0 1.34 0 0.68 0 0 Z " fill="#2D2D2D" transform="translate(259,18)"/>
</svg>
