<?xml version="1.0" encoding="UTF-8"?>
<svg version="1.1" xmlns="http://www.w3.org/2000/svg" width="444" height="512">
<path d="M0 0 C0 0.66 0 1.32 0 2 C0.680625 2.0825 1.36125 2.165 2.0625 2.25 C5.8746907 3.22332528 8.64070329 4.95807455 12 7 C12 7.66 12 8.32 12 9 C12.66 9 13.32 9 14 9 C14.04573508 52.78951789 14.08099764 96.57903327 14.10213066 140.36857032 C14.1046322 145.53331124 14.10722083 150.69805212 14.10986328 155.86279297 C14.1103879 156.89103983 14.11091252 157.91928669 14.11145304 158.97869255 C14.1201658 175.64805392 14.13594054 192.31740155 14.15430559 208.98675476 C14.17298046 226.07933113 14.1841116 243.17190028 14.18817699 260.26448643 C14.19092707 270.81934078 14.19962621 281.37415632 14.21583293 291.92899872 C14.22637006 299.15780531 14.22960809 306.38659171 14.22700275 313.61540543 C14.22571634 317.79177939 14.2277471 321.96808533 14.23841095 326.14444733 C14.24808954 329.96262761 14.24867035 333.78069363 14.24179779 337.59887899 C14.24094745 338.98517957 14.2435301 340.37148705 14.24976636 341.75777386 C14.25771348 343.63234241 14.25230453 345.50695374 14.24609566 347.38152885 C14.2468551 348.42575976 14.24761454 349.46999067 14.24839699 350.54586494 C14 353 14 353 12 355 C11.01 355 10.02 355 9 355 C9 355.66 9 356.32 9 357 C8.48050781 357.24234375 7.96101562 357.4846875 7.42578125 357.734375 C3.18728392 359.77136078 -0.43232946 361.87828828 -4 365 C-7.7910119 363.55049545 -11.3874638 361.84827434 -15 360 C-15 359.34 -15 358.68 -15 358 C-16.051875 357.9071875 -16.051875 357.9071875 -17.125 357.8125 C-20.96602349 356.72699336 -23.68418648 355.2482897 -26 352 C-26.89726567 348.11295374 -26.78345015 344.28720086 -26.7215271 340.3132782 C-26.72665365 339.11660878 -26.7317802 337.91993937 -26.7370621 336.68700725 C-26.74523745 333.36825123 -26.7264903 330.05161813 -26.69639373 326.73311889 C-26.67048249 323.15376018 -26.67925118 319.57446701 -26.68380737 315.99504089 C-26.68695351 309.79458264 -26.66812901 303.59450321 -26.63438034 297.39414024 C-26.58561757 288.42952435 -26.56999167 279.46509163 -26.56245239 270.50035749 C-26.54932064 255.95578227 -26.50939115 241.41140895 -26.45263672 226.86694336 C-26.39756249 212.73837291 -26.35509201 198.60985729 -26.32958984 184.48120117 C-26.3280135 183.61031208 -26.32643716 182.73942299 -26.32481305 181.84214332 C-26.31698283 177.47314803 -26.30940058 173.10415235 -26.30194163 168.73515642 C-26.23974136 132.48996172 -26.13406254 96.24499658 -26 60 C-26.66 60 -27.32 60 -28 60 C-28 60.66 -28 61.32 -28 62 C-29.43294498 62.84114171 -30.87154405 63.67265687 -32.3125 64.5 C-33.51326172 65.19609375 -33.51326172 65.19609375 -34.73828125 65.90625 C-37 67 -37 67 -40 67 C-40 67.66 -40 68.32 -40 69 C-41.24735567 69.6509259 -42.49801832 70.29551669 -43.75 70.9375 C-44.44609375 71.29714844 -45.1421875 71.65679687 -45.859375 72.02734375 C-47.90224433 72.95558182 -49.81115376 73.53166578 -52 74 C-52 74.66 -52 75.32 -52 76 C-53.051875 76.495 -54.10375 76.99 -55.1875 77.5 C-59.10531314 79.44846835 -62.78860781 81.68416041 -66.5 84 C-72.13913246 87.51300943 -77.6678897 90.88929657 -84 93 C-84 166.26 -84 239.52 -84 315 C-88.76003515 314.04799297 -91.80707123 312.56529859 -95.8125 310.0625 C-96.45614502 309.66861084 -97.09979004 309.27472168 -97.76293945 308.86889648 C-103.44222323 305.38221727 -109.08950951 301.84057902 -114.7199707 298.27563477 C-117.74947064 296.36439885 -120.74660092 294.50727096 -124 293 C-124 292.34 -124 291.68 -124 291 C-124.99 291 -125.98 291 -127 291 C-127 234.24 -127 177.48 -127 119 C-134.12320548 122.79616445 -134.12320548 122.79616445 -141 127 C-141.99 127 -142.98 127 -144 127 C-144 127.66 -144 128.32 -144 129 C-145.43294498 129.84114171 -146.87154405 130.67265687 -148.3125 131.5 C-149.11300781 131.9640625 -149.91351563 132.428125 -150.73828125 132.90625 C-153 134 -153 134 -156 134 C-156 134.66 -156 135.32 -156 136 C-157.43294498 136.84114171 -158.87154405 137.67265687 -160.3125 138.5 C-161.11300781 138.9640625 -161.91351563 139.428125 -162.73828125 139.90625 C-165 141 -165 141 -168 141 C-168 141.66 -168 142.32 -168 143 C-169.43294498 143.84114171 -170.87154405 144.67265687 -172.3125 145.5 C-173.11300781 145.9640625 -173.91351563 146.428125 -174.73828125 146.90625 C-177 148 -177 148 -180 148 C-180 148.66 -180 149.32 -180 150 C-180.99 150.33 -181.98 150.66 -183 151 C-183.33 185.65 -183.66 220.3 -184 256 C-188 257 -188 257 -190.25 256.0625 C-190.8275 255.711875 -191.405 255.36125 -192 255 C-192 254.34 -192 253.68 -192 253 C-192.57234375 252.87753906 -193.1446875 252.75507813 -193.734375 252.62890625 C-196.09953191 251.97237132 -198.07206797 251.06276488 -200.25 249.9375 C-200.95640625 249.57527344 -201.6628125 249.21304688 -202.390625 248.83984375 C-202.92171875 248.56269531 -203.4528125 248.28554687 -204 248 C-204 247.34 -204 246.68 -204 246 C-205.08861328 245.83757812 -205.08861328 245.83757812 -206.19921875 245.671875 C-209.20290411 244.95132565 -211.2032928 243.8854966 -213.8125 242.25 C-214.99779297 241.51523437 -214.99779297 241.51523437 -216.20703125 240.765625 C-217.12871094 240.18296875 -218.05039063 239.6003125 -219 239 C-219.65697121 238.70376645 -220.31394241 238.4075329 -220.99082184 238.10232258 C-223.33809675 236.93521768 -225.11535541 235.83076361 -227 234 C-228.16266407 230.51416433 -228.01392514 227.16427654 -227.90820312 223.51831055 C-227.90937134 222.46419479 -227.91053955 221.41007904 -227.91174316 220.32402039 C-227.90617425 216.84357434 -227.84397266 213.36656517 -227.78125 209.88671875 C-227.76632738 207.47249727 -227.75494047 205.05825156 -227.74694824 202.64399719 C-227.71641687 196.29264321 -227.63784146 189.94275513 -227.54931641 183.59197998 C-227.46744873 177.11034985 -227.43093456 170.62848261 -227.390625 164.14648438 C-227.3048514 151.4303645 -227.16986902 138.71526025 -227 126 C-226.39753448 125.66643494 -225.79506897 125.33286987 -225.17434692 124.98919678 C-224.37576263 124.54642395 -223.57717834 124.10365112 -222.75439453 123.64746094 C-221.57225876 122.99242584 -221.57225876 122.99242584 -220.36624146 122.32415771 C-216.8389216 120.35025611 -213.35492343 118.30597951 -209.875 116.25 C-209.14780762 115.82170898 -208.42061523 115.39341797 -207.67138672 114.95214844 C-203.4391804 112.45526613 -199.22282297 109.93359103 -195.0168457 107.39282227 C-189.27511902 103.92437181 -183.49363445 100.57676009 -177.57421875 97.41796875 C-173.99639114 95.44717752 -170.54430889 93.28616959 -167.09375 91.1015625 C-165 90 -165 90 -162 90 C-162 89.34 -162 88.68 -162 88 C-161.01 88 -160.02 88 -159 88 C-159 87.34 -159 86.68 -159 86 C-153.375 83 -153.375 83 -150 83 C-150 82.34 -150 81.68 -150 81 C-148.56705502 80.15885829 -147.12845595 79.32734313 -145.6875 78.5 C-144.48673828 77.80390625 -144.48673828 77.80390625 -143.26171875 77.09375 C-141 76 -141 76 -138 76 C-138 75.34 -138 74.68 -138 74 C-132.375 71 -132.375 71 -129 71 C-129 70.34 -129 69.68 -129 69 C-128.01 69 -127.02 69 -126 69 C-126 68.34 -126 67.68 -126 67 C-120.375 64 -120.375 64 -117 64 C-117 63.34 -117 62.68 -117 62 C-116.01 62 -115.02 62 -114 62 C-114 61.34 -114 60.68 -114 60 C-108.375 57 -108.375 57 -105 57 C-105 56.34 -105 55.68 -105 55 C-103.56705502 54.15885829 -102.12845595 53.32734313 -100.6875 52.5 C-99.88699219 52.0359375 -99.08648437 51.571875 -98.26171875 51.09375 C-96 50 -96 50 -93 50 C-93 49.34 -93 48.68 -93 48 C-87.375 45 -87.375 45 -84 45 C-84 44.34 -84 43.68 -84 43 C-83.01 43 -82.02 43 -81 43 C-81 42.34 -81 41.68 -81 41 C-75.375 38 -75.375 38 -72 38 C-72 37.34 -72 36.68 -72 36 C-70.56705502 35.15885829 -69.12845595 34.32734313 -67.6875 33.5 C-66.88699219 33.0359375 -66.08648437 32.571875 -65.26171875 32.09375 C-63 31 -63 31 -60 31 C-60 30.34 -60 29.68 -60 29 C-58.75264433 28.3490741 -57.50198168 27.70448331 -56.25 27.0625 C-55.55390625 26.70285156 -54.8578125 26.34320312 -54.140625 25.97265625 C-52.09775567 25.04441818 -50.18884624 24.46833422 -48 24 C-48 23.34 -48 22.68 -48 22 C-46.989375 21.525625 -45.97875 21.05125 -44.9375 20.5625 C-39.82903842 18.03583285 -35.01635007 15.02543326 -30.19311523 11.99829102 C-25.32441109 9 -25.32441109 9 -22 9 C-22 8.34 -22 7.68 -22 7 C-20.56705502 6.15885829 -19.12845595 5.32734313 -17.6875 4.5 C-16.48673828 3.80390625 -16.48673828 3.80390625 -15.26171875 3.09375 C-13 2 -13 2 -10 2 C-10 1.34 -10 0.68 -10 0 C-6.30581799 -1.231394 -3.7943739 -0.64432764 0 0 Z " fill="#000000" transform="translate(227,1)"/>
<path d="M0 0 C1.32 0 2.64 0 4 0 C4 40.92 4 81.84 4 124 C1.03 125.65 -1.94 127.3 -5 129 C-6.8042872 130.12585576 -8.59815347 131.26881703 -10.375 132.4375 C-14.91659244 135.36388174 -19.55383905 137.988365 -24.31640625 140.53515625 C-26.92318403 141.95806989 -29.46286689 143.45687797 -32 145 C-46.8287172 153.97776968 -46.8287172 153.97776968 -52 155 C-52 155.66 -52 156.32 -52 157 C-57.625 160 -57.625 160 -61 160 C-61 160.66 -61 161.32 -61 162 C-61.99 162 -62.98 162 -64 162 C-64 162.66 -64 163.32 -64 164 C-69.625 167 -69.625 167 -73 167 C-73 167.66 -73 168.32 -73 169 C-74.43294498 169.84114171 -75.87154405 170.67265687 -77.3125 171.5 C-78.11300781 171.9640625 -78.91351563 172.428125 -79.73828125 172.90625 C-82 174 -82 174 -85 174 C-85 174.66 -85 175.32 -85 176 C-86.43294498 176.84114171 -87.87154405 177.67265687 -89.3125 178.5 C-90.11300781 178.9640625 -90.91351563 179.428125 -91.73828125 179.90625 C-94 181 -94 181 -97 181 C-97 181.66 -97 182.32 -97 183 C-102.625 186 -102.625 186 -106 186 C-106 186.66 -106 187.32 -106 188 C-106.99 188 -107.98 188 -109 188 C-109 188.66 -109 189.32 -109 190 C-114.625 193 -114.625 193 -118 193 C-118 193.66 -118 194.32 -118 195 C-119.43294498 195.84114171 -120.87154405 196.67265687 -122.3125 197.5 C-123.11300781 197.9640625 -123.91351563 198.428125 -124.73828125 198.90625 C-127 200 -127 200 -130 200 C-130 200.66 -130 201.32 -130 202 C-135.625 205 -135.625 205 -139 205 C-139 205.66 -139 206.32 -139 207 C-139.99 207 -140.98 207 -142 207 C-142 207.66 -142 208.32 -142 209 C-143.670625 209.804375 -143.670625 209.804375 -145.375 210.625 C-149.68933862 212.7629432 -153.73687518 215.25070263 -157.80078125 217.828125 C-160 219 -160 219 -163 219 C-163 219.66 -163 220.32 -163 221 C-164.24735567 221.6509259 -165.49801832 222.29551669 -166.75 222.9375 C-167.79414063 223.47697266 -167.79414063 223.47697266 -168.859375 224.02734375 C-170.90224433 224.95558182 -172.81115376 225.53166578 -175 226 C-175 226.66 -175 227.32 -175 228 C-176.010625 228.474375 -177.02125 228.94875 -178.0625 229.4375 C-183.17096158 231.96416715 -187.98364993 234.97456674 -192.80688477 238.00170898 C-197.67558891 241 -197.67558891 241 -201 241 C-201 241.66 -201 242.32 -201 243 C-202.43294498 243.84114171 -203.87154405 244.67265687 -205.3125 245.5 C-206.11300781 245.9640625 -206.91351563 246.428125 -207.73828125 246.90625 C-210 248 -210 248 -213 248 C-213 248.66 -213 249.32 -213 250 C-219.625 251.125 -219.625 251.125 -223 250 C-223 249.34 -223 248.68 -223 248 C-223.680625 247.9175 -224.36125 247.835 -225.0625 247.75 C-228.8746907 246.77667472 -231.64070329 245.04192545 -235 243 C-235 242.34 -235 241.68 -235 241 C-236.32 240.67 -237.64 240.34 -239 240 C-239 198.09 -239 156.18 -239 113 C-233.68971048 113 -230.49330468 115.4560289 -226.1328125 118.15625 C-222.70502263 120.21586623 -221.10721257 121 -217 121 C-214.94379308 120.09747696 -212.92436888 119.10886837 -210.9375 118.0625 C-207.95021434 116.5005447 -205.19890226 115.06630075 -202 114 C-202 113.34 -202 112.68 -202 112 C-201.01 112.33 -200.02 112.66 -199 113 C-198.67 138.41 -198.34 163.82 -198 190 C-197.01 190 -196.02 190 -195 190 C-195 189.34 -195 188.68 -195 188 C-193.56705502 187.15885829 -192.12845595 186.32734313 -190.6875 185.5 C-189.88699219 185.0359375 -189.08648437 184.571875 -188.26171875 184.09375 C-186 183 -186 183 -183 183 C-183 182.34 -183 181.68 -183 181 C-181.4221875 180.2575 -181.4221875 180.2575 -179.8125 179.5 C-174.74493015 176.97520013 -170.004353 173.95842492 -165.19921875 170.97265625 C-162.44486679 169.27430736 -159.68295428 167.60781721 -156.875 166 C-156.19179688 165.608125 -155.50859375 165.21625 -154.8046875 164.8125 C-153 164 -153 164 -150 164 C-150 163.34 -150 162.68 -150 162 C-148.948125 161.505 -147.89625 161.01 -146.8125 160.5 C-142.36300108 158.28311185 -138.18858705 155.68572963 -133.97387695 153.05566406 C-129.83293059 150.48358901 -125.62182139 148.12018779 -121.328125 145.81640625 C-110.37252086 139.83711526 -99.55165648 133.58862238 -88.875 127.125 C-72.22532811 117.05707787 -72.22532811 117.05707787 -67 116 C-67 115.34 -67 114.68 -67 114 C-65.56705502 113.15885829 -64.12845595 112.32734313 -62.6875 111.5 C-61.48673828 110.80390625 -61.48673828 110.80390625 -60.26171875 110.09375 C-58 109 -58 109 -55 109 C-55 108.34 -55 107.68 -55 107 C-49.375 104 -49.375 104 -46 104 C-46 103.34 -46 102.68 -46 102 C-44.02 101.01 -42.04 100.02 -40 99 C-39.99413376 98.05230743 -39.98826752 97.10461487 -39.98222351 96.12820435 C-39.9250879 87.21067601 -39.85237492 78.29339369 -39.76428509 69.3761158 C-39.71949769 64.79128897 -39.68026036 60.20655273 -39.65356445 55.62158203 C-39.62761452 51.19939665 -39.58727204 46.77755831 -39.53681374 42.35558701 C-39.52008851 40.66588523 -39.50860958 38.97612334 -39.50238609 37.28635025 C-39.49280597 34.92506505 -39.46482227 32.56467912 -39.43237305 30.20361328 C-39.43380814 29.50014771 -39.43524323 28.79668213 -39.4367218 28.07189941 C-39.39872742 26.12576294 -39.39872742 26.12576294 -39 23 C-36 21 -36 21 -33 21 C-33 20.34 -33 19.68 -33 19 C-31.35 18.67 -29.7 18.34 -28 18 C-28 17.34 -28 16.68 -28 16 C-25.35261084 14.5393715 -24.10551666 14 -21 14 C-21 13.34 -21 12.68 -21 12 C-19.35 11.67 -17.7 11.34 -16 11 C-16 10.34 -16 9.68 -16 9 C-14.75264433 8.3490741 -13.50198168 7.70448331 -12.25 7.0625 C-11.55390625 6.70285156 -10.8578125 6.34320313 -10.140625 5.97265625 C-8.09775567 5.04441818 -6.18884624 4.46833422 -4 4 C-4 3.34 -4 2.68 -4 2 C-2.68 2 -1.36 2 0 2 C0 1.34 0 0.68 0 0 Z " fill="#000000" transform="translate(440,261)"/>
<path d="M0 0 C2.475 0.495 2.475 0.495 5 1 C5 1.66 5 2.32 5 3 C5.57234375 3.12246094 6.1446875 3.24492188 6.734375 3.37109375 C9.09953191 4.02762868 11.07206797 4.93723512 13.25 6.0625 C13.95640625 6.42472656 14.6628125 6.78695312 15.390625 7.16015625 C15.92171875 7.43730469 16.4528125 7.71445312 17 8 C17 8.66 17 9.32 17 10 C17.556875 10.12375 18.11375 10.2475 18.6875 10.375 C21.22114364 11.05976855 23.57921032 11.99133763 26 13 C26 13.66 26 14.32 26 15 C26.99 15 27.98 15 29 15 C29 15.66 29 16.32 29 17 C29.7425 17.12375 30.485 17.2475 31.25 17.375 C33.80141485 17.95486701 35.7267573 18.73708739 38 20 C38 20.66 38 21.32 38 22 C38.99 22 39.98 22 41 22 C41 22.66 41 23.32 41 24 C41.7425 24.12375 42.485 24.2475 43.25 24.375 C45.80141485 24.95486701 47.7267573 25.73708739 50 27 C50 27.66 50 28.32 50 29 C50.57234375 29.12246094 51.1446875 29.24492188 51.734375 29.37109375 C54.09953191 30.02762868 56.07206797 30.93723512 58.25 32.0625 C58.95640625 32.42472656 59.6628125 32.78695312 60.390625 33.16015625 C60.92171875 33.43730469 61.4528125 33.71445313 62 34 C62 34.66 62 35.32 62 36 C62.680625 36.0825 63.36125 36.165 64.0625 36.25 C67.8746907 37.22332528 70.64070329 38.95807455 74 41 C74 41.66 74 42.32 74 43 C74.72703125 43.10828125 75.4540625 43.2165625 76.203125 43.328125 C79.19726218 44.047387 81.1580756 45.10675381 83.75 46.75 C86.98061123 48.7601581 90.21365689 50.69361878 93.5625 52.5 C96.68148008 54.20775142 99.62656199 56.05661084 102.5625 58.0625 C105.19085368 59.84779684 107.75602573 61.44927249 110.625 62.8125 C115.36725588 65.07433747 119.80243018 67.82834232 124.28173828 70.5637207 C129.12922817 73.51506609 134.02562678 76.23645932 139 79 C139 94.18 139 109.36 139 125 C138.34 125 137.68 125 137 125 C137 125.66 137 126.32 137 127 C135.2984375 127.680625 135.2984375 127.680625 133.5625 128.375 C129.95278308 129.57095806 129.95278308 129.57095806 129 132 C127.68 132 126.36 132 125 132 C125 132.66 125 133.32 125 134 C123.88625 134.45375 122.7725 134.9075 121.625 135.375 C118.03800992 136.72465986 118.03800992 136.72465986 116 139 C115.01 139 114.02 139 113 139 C113 139.66 113 140.32 113 141 C111.35 141.33 109.7 141.66 108 142 C108 142.66 108 143.32 108 144 C106.75823305 144.70226141 105.50614401 145.38629109 104.25 146.0625 C103.55390625 146.44535156 102.8578125 146.82820312 102.140625 147.22265625 C100 148 100 148 96 147 C95.67 132.81 95.34 118.62 95 104 C93.515 103.505 93.515 103.505 92 103 C92 102.34 92 101.68 92 101 C91.42765625 100.87753906 90.8553125 100.75507813 90.265625 100.62890625 C87.90046809 99.97237132 85.92793203 99.06276488 83.75 97.9375 C83.04359375 97.57527344 82.3371875 97.21304688 81.609375 96.83984375 C80.81273437 96.42412109 80.81273437 96.42412109 80 96 C80 95.34 80 94.68 80 94 C79.42765625 93.87753906 78.8553125 93.75507813 78.265625 93.62890625 C75.90046809 92.97237132 73.92793203 92.06276488 71.75 90.9375 C71.04359375 90.57527344 70.3371875 90.21304688 69.609375 89.83984375 C68.81273437 89.42412109 68.81273437 89.42412109 68 89 C68 88.34 68 87.68 68 87 C67.41734375 86.87544434 66.8346875 86.75088867 66.234375 86.62255859 C63.99346894 85.99818027 62.26995675 85.18102669 60.25 84.0390625 C59.5590625 83.64976562 58.868125 83.26046875 58.15625 82.859375 C57.4446875 82.45203125 56.733125 82.0446875 56 81.625 C55.2884375 81.22539062 54.576875 80.82578125 53.84375 80.4140625 C50.3438391 78.42903841 47.24311135 76.43233351 44 74 C43.67 129.77 43.34 185.54 43 243 C41.68 243.33 40.36 243.66 39 244 C39 244.66 39 245.32 39 246 C38.37996094 246.31710937 37.75992188 246.63421875 37.12109375 246.9609375 C30.48298517 250.45874726 24.27787257 254.37594832 18.12866211 258.65966797 C15.09821835 260.74096598 12.59714539 262.25766977 9 263 C9 263.66 9 264.32 9 265 C3.375 268 3.375 268 0 268 C0 179.56 0 91.12 0 0 Z " fill="#000000" transform="translate(305,48)"/>
<path d="M0 0 C3.15687769 0.72100765 5.35420484 1.70490649 8.0625 3.5 C10.45658958 5.08074245 12.24559596 6.08186532 15 7 C15 7.66 15 8.32 15 9 C15.57234375 9.12246094 16.1446875 9.24492187 16.734375 9.37109375 C19.09953191 10.02762868 21.07206797 10.93723512 23.25 12.0625 C23.95640625 12.42472656 24.6628125 12.78695313 25.390625 13.16015625 C25.92171875 13.43730469 26.4528125 13.71445312 27 14 C27 14.66 27 15.32 27 16 C27.556875 16.12375 28.11375 16.2475 28.6875 16.375 C31.22114364 17.05976855 33.57921032 17.99133763 36 19 C36 19.66 36 20.32 36 21 C36.598125 21.12375 37.19625 21.2475 37.8125 21.375 C40 22 40 22 43 24 C43.31615122 26.65902882 43.43740582 29.09062885 43.43237305 31.75439453 C43.44766052 32.95452179 43.44766052 32.95452179 43.46325684 34.17889404 C43.4935134 36.83027025 43.50267188 39.48128597 43.51171875 42.1328125 C43.52855609 43.96842664 43.54670504 45.80402919 43.56611633 47.63961792 C43.61372525 52.47617977 43.64346399 57.31269464 43.66955566 62.14941406 C43.69930642 67.08277676 43.74585546 72.01597731 43.79101562 76.94921875 C43.87717255 86.63272788 43.94446255 96.31627027 44 106 C45.98 106.99 47.96 107.98 50 109 C50 109.66 50 110.32 50 111 C51.11375 111.185625 51.11375 111.185625 52.25 111.375 C54.80141485 111.95486701 56.7267573 112.73708739 59 114 C59 114.66 59 115.32 59 116 C59.58144775 116.12205811 60.16289551 116.24411621 60.76196289 116.36987305 C63.05732311 117.01613952 64.76055419 117.87111275 66.80859375 119.08203125 C67.5449707 119.51338379 68.28134766 119.94473633 69.04003906 120.38916016 C69.83120117 120.8588623 70.62236328 121.32856445 71.4375 121.8125 C73.14933344 122.81709864 74.86158855 123.82097902 76.57421875 124.82421875 C77.90912354 125.60804932 77.90912354 125.60804932 79.27099609 126.40771484 C83.74301298 129.01699147 88.24812001 131.5677215 92.75 134.125 C99.54155576 137.99071403 106.27613089 141.93376618 112.95751953 145.98657227 C117.32210279 148.6238357 121.76612569 151.06834648 126.26171875 153.47265625 C129.38754057 155.21616029 132.40589969 157.09760787 135.4375 159 C141.44199796 162.74381168 147.61331461 165.96200911 154 169 C154 169.66 154 170.32 154 171 C154.55816406 171.11214844 155.11632812 171.22429687 155.69140625 171.33984375 C159.35097379 172.38631907 162.44354738 174.26925786 165.7043457 176.20507812 C168.93949046 178.07932708 168.93949046 178.07932708 172.40722656 179.20678711 C176.41577204 180.90066363 179.52386939 182.33042212 182 186 C184.24803425 194.01314299 183.2114858 202.78981038 182.8125 211 C182.74725022 213.32405792 182.68794166 215.64829073 182.63476562 217.97265625 C182.49190136 223.6522673 182.27480839 229.32532424 182 235 C181.01 235 180.02 235 179 235 C179 234.34 179 233.68 179 233 C178.14148438 232.81630859 178.14148438 232.81630859 177.265625 232.62890625 C174.90046809 231.97237132 172.92793203 231.06276488 170.75 229.9375 C170.04359375 229.57527344 169.3371875 229.21304688 168.609375 228.83984375 C168.07828125 228.56269531 167.5471875 228.28554688 167 228 C167 227.34 167 226.68 167 226 C166.45085937 225.89429688 165.90171875 225.78859375 165.3359375 225.6796875 C162.50080243 224.85474853 160.1972321 223.57323152 157.625 222.125 C153.78779468 219.98808244 149.94896055 217.92111594 146 216 C146 215.34 146 214.68 146 214 C145.14148438 213.81630859 145.14148438 213.81630859 144.265625 213.62890625 C141.90046809 212.97237132 139.92793203 212.06276488 137.75 210.9375 C137.04359375 210.57527344 136.3371875 210.21304688 135.609375 209.83984375 C135.07828125 209.56269531 134.5471875 209.28554688 134 209 C134 208.34 134 207.68 134 207 C133.14148438 206.81630859 133.14148438 206.81630859 132.265625 206.62890625 C129.90046809 205.97237132 127.92793203 205.06276488 125.75 203.9375 C125.04359375 203.57527344 124.3371875 203.21304688 123.609375 202.83984375 C123.07828125 202.56269531 122.5471875 202.28554688 122 202 C122 201.34 122 200.68 122 200 C121.1646875 199.814375 121.1646875 199.814375 120.3125 199.625 C117.77885636 198.94023145 115.42078968 198.00866237 113 197 C113 196.34 113 195.68 113 195 C112.01 195 111.02 195 110 195 C110 194.34 110 193.68 110 193 C109.2575 192.87625 108.515 192.7525 107.75 192.625 C105.19858515 192.04513299 103.2732427 191.26291261 101 190 C101 189.34 101 188.68 101 188 C100.42765625 187.87753906 99.8553125 187.75507813 99.265625 187.62890625 C96.90046809 186.97237132 94.92793203 186.06276488 92.75 184.9375 C92.04359375 184.57527344 91.3371875 184.21304688 90.609375 183.83984375 C90.07828125 183.56269531 89.5471875 183.28554688 89 183 C89 182.34 89 181.68 89 181 C88.42765625 180.87753906 87.8553125 180.75507813 87.265625 180.62890625 C84.90046809 179.97237132 82.92793203 179.06276488 80.75 177.9375 C80.04359375 177.57527344 79.3371875 177.21304688 78.609375 176.83984375 C78.07828125 176.56269531 77.5471875 176.28554688 77 176 C77 175.34 77 174.68 77 174 C76.2575 173.87625 75.515 173.7525 74.75 173.625 C72.19858515 173.04513299 70.2732427 172.26291261 68 171 C68 170.34 68 169.68 68 169 C67.01 169 66.02 169 65 169 C65 168.34 65 167.68 65 167 C64.2575 166.87625 63.515 166.7525 62.75 166.625 C60.19858515 166.04513299 58.2732427 165.26291261 56 164 C56 163.34 56 162.68 56 162 C55.42765625 161.87753906 54.8553125 161.75507813 54.265625 161.62890625 C51.90046809 160.97237132 49.92793203 160.06276488 47.75 158.9375 C47.04359375 158.57527344 46.3371875 158.21304688 45.609375 157.83984375 C45.07828125 157.56269531 44.5471875 157.28554688 44 157 C44 156.34 44 155.68 44 155 C43.26265625 154.88527344 42.5253125 154.77054688 41.765625 154.65234375 C38.93875241 153.98555318 37.18811592 153.1104405 34.75 151.5625 C30.07845757 148.66196022 25.36841384 145.84324964 20.625 143.0625 C19.95436523 142.66812744 19.28373047 142.27375488 18.59277344 141.86743164 C17.91504883 141.46903076 17.23732422 141.07062988 16.5390625 140.66015625 C15.87560444 140.25542115 15.21214638 139.85068605 14.52858353 139.43368626 C11.9637307 137.9248672 11.9637307 137.9248672 8.9796257 136.65967464 C0.66754948 132.67208263 0.66754948 132.67208263 -1.08916473 128.27185249 C-1.48093767 124.8545025 -1.48592808 121.61779612 -1.36230469 118.17993164 C-1.36405701 116.90119171 -1.36580933 115.62245178 -1.36761475 114.30496216 C-1.37104584 110.81376984 -1.30073482 107.32756723 -1.21672726 103.83753133 C-1.14148694 100.18495256 -1.13464574 96.53224717 -1.12042236 92.87901306 C-1.0831871 85.96849217 -0.98481014 79.06026112 -0.86422849 72.15074676 C-0.72989489 64.28165125 -0.66407144 56.41244376 -0.60388327 48.54248631 C-0.4785956 32.36031897 -0.2676596 16.18045207 0 0 Z " fill="#000000" transform="translate(0,254)"/>
<path d="M0 0 C0.99 0 1.98 0 3 0 C3 13.53 3 27.06 3 41 C2.34 41 1.68 41 1 41 C1 41.66 1 42.32 1 43 C-1.475 43.495 -1.475 43.495 -4 44 C-4 44.66 -4 45.32 -4 46 C-6.64738916 47.4606285 -7.89448334 48 -11 48 C-11 48.66 -11 49.32 -11 50 C-13.475 50.495 -13.475 50.495 -16 51 C-16 51.66 -16 52.32 -16 53 C-17.24735567 53.6509259 -18.49801832 54.29551669 -19.75 54.9375 C-20.79414063 55.47697266 -20.79414063 55.47697266 -21.859375 56.02734375 C-23.90224433 56.95558182 -25.81115376 57.53166578 -28 58 C-28 58.66 -28 59.32 -28 60 C-29.24460783 60.67667998 -30.49596896 61.34094719 -31.75 62 C-32.44609375 62.37125 -33.1421875 62.7425 -33.859375 63.125 C-36 64 -36 64 -40 64 C-40.12381149 58.53743725 -40.21443826 53.07569512 -40.2746582 47.61206055 C-40.29976702 45.75449391 -40.33386134 43.89702573 -40.37719727 42.03979492 C-40.43801124 39.36612642 -40.4662452 36.69376635 -40.48828125 34.01953125 C-40.51408768 33.19226028 -40.5398941 32.36498932 -40.56648254 31.51264954 C-40.56856913 27.2006848 -40.39694508 25.51473145 -37.67651367 21.98706055 C-34.68904128 19.76914229 -32.67741816 19.25656406 -29 19 C-29 18.34 -29 17.68 -29 17 C-27.56705502 16.15885829 -26.12845595 15.32734313 -24.6875 14.5 C-23.48673828 13.80390625 -23.48673828 13.80390625 -22.26171875 13.09375 C-20 12 -20 12 -17 12 C-17 11.34 -17 10.68 -17 10 C-15.68 10 -14.36 10 -13 10 C-12.67 9.01 -12.34 8.02 -12 7 C-9.39757586 5.35179805 -8.13751221 5 -5 5 C-5 4.34 -5 3.68 -5 3 C-4.360625 2.87625 -3.72125 2.7525 -3.0625 2.625 C-2.381875 2.41875 -1.70125 2.2125 -1 2 C-0.67 1.34 -0.34 0.68 0 0 Z " fill="#000000" transform="translate(441,196)"/>
<path d="M0 0 C2.475 0.495 2.475 0.495 5 1 C5 1.66 5 2.32 5 3 C5.57234375 3.12246094 6.1446875 3.24492187 6.734375 3.37109375 C9.09953191 4.02762868 11.07206797 4.93723512 13.25 6.0625 C13.95640625 6.42472656 14.6628125 6.78695313 15.390625 7.16015625 C15.92171875 7.43730469 16.4528125 7.71445312 17 8 C17 8.66 17 9.32 17 10 C17.8353125 10.1546875 17.8353125 10.1546875 18.6875 10.3125 C21.82732806 11.2459624 23.50532516 11.77130809 26 14 C26.73805099 17.58789789 26.57930797 21.14413813 26.48828125 24.79296875 C26.48120651 25.85413406 26.47413177 26.91529938 26.46684265 28.00862122 C26.43882466 31.40229403 26.37606956 34.7943248 26.3125 38.1875 C26.28742684 40.48630432 26.26461197 42.78513447 26.24414062 45.08398438 C26.1889739 50.72321774 26.10527355 56.36149159 26 62 C21.62807276 62 20.50422654 61.34886317 16.9375 59.0625 C14.23324685 57.342351 12.0502459 56.01674863 9 55 C9 54.34 9 53.68 9 53 C8.443125 52.896875 7.88625 52.79375 7.3125 52.6875 C4.16003626 51.75028105 2.50005171 51.24782097 0 49 C-0.73950595 45.33947387 -0.57917328 41.70875344 -0.48828125 37.98828125 C-0.48120651 36.90491989 -0.47413177 35.82155853 -0.46684265 34.70536804 C-0.43882254 31.24038038 -0.37606661 27.77700037 -0.3125 24.3125 C-0.28742714 21.9655181 -0.26461221 19.61851092 -0.24414062 17.27148438 C-0.18897099 11.5137731 -0.10526821 5.75700138 0 0 Z " fill="#000000" transform="translate(260,22)"/>
</svg>
